<svg width="24" height="24" viewBox="0 0 24 24" fill="none" xmlns="http://www.w3.org/2000/svg">
<g clip-path="url(#clip0_1770_16898)">
<path d="M0 23.9986H4.26937V9.19922L0 10.2661V23.9986ZM1.40625 12.1355H2.8125V15.7552H1.40625V12.1355ZM1.40625 18.3108H2.8125V22.5923H1.40625V18.3108Z" fill="white"/>
<path d="M19.7305 5.31297V23.9988H23.9998V4.24609L19.7305 5.31297ZM22.5936 22.5925H21.1873V18.3109H22.5936V22.5925ZM22.5936 15.9761H21.1873V14.0584H22.5936V15.9761ZM22.5936 11.7302H21.1873V8.11047H22.5936V11.7302Z" fill="white"/>
<path d="M9.91797 19.7148H11.2967V23.9978H9.91797V19.7148Z" fill="white"/>
<path d="M5.67578 23.9979H8.51186V18.3043H15.488V23.9979H18.3241V0.00390625L5.67578 4.25861V23.9979ZM14.0817 4.36356H15.488V8.17225H14.0817V4.36356ZM14.0817 10.5029H15.488V12.4207H14.0817V10.5029ZM14.0817 14.7488H15.488V16.6667H14.0817V14.7488ZM11.2968 5.3208H12.703V8.18406H11.2968V5.3208ZM11.2968 10.5147H12.703V12.4326H11.2968V10.5147ZM11.2968 14.7606H12.703V16.6785H11.2968V14.7606ZM8.51186 6.25441H9.91811V8.17225H8.51186V6.25441ZM8.51186 10.5029H9.91811V12.4207H8.51186V10.5029ZM8.51186 14.7488H9.91811V16.6667H8.51186V14.7488Z" fill="white"/>
<path d="M12.7031 19.7148H14.0818V23.9978H12.7031V19.7148Z" fill="white"/>
</g>
<defs>
<clipPath id="clip0_1770_16898">
<rect width="24" height="24" fill="white"/>
</clipPath>
</defs>
</svg>
