<svg width="24" height="24" viewBox="0 0 24 24" fill="none" xmlns="http://www.w3.org/2000/svg">
<g clip-path="url(#clip0_1770_16886)">
<path d="M21.1406 13.8182L20.9346 13.6122C20.8419 13.5188 19.9781 12.7031 18.3281 12.7031C16.6781 12.7031 15.8143 13.5188 15.7216 13.6123L15.5156 13.8182V15.5156H12.7031V18.3281H24V15.5156H21.1406V13.8182ZM19.7344 15.5156H16.9219V14.4616C17.1705 14.3126 17.6367 14.1094 18.3281 14.1094C19.0216 14.1094 19.4886 14.314 19.7344 14.4602V15.5156Z" fill="white"/>
<path d="M8.48438 15.5156V22.5938H7.07813V24C8.44153 24 11.4705 24 11.2969 24V22.5938H9.89063V11.2969H16.5099L18.6193 9.1875L16.5099 7.07812H9.89063V1.40625H11.2969V0H7.07813V1.40625H8.48438V2.8125H3.22448L1.11511 4.96875L3.22448 7.07812H8.48438V11.2969H2.10938L0 13.4062L2.10938 15.5156H8.48438Z" fill="white"/>
<path d="M19.0312 21.1406H17.625V19.7344H12.7031V24H24V19.7344H19.0312V21.1406Z" fill="white"/>
</g>
<defs>
<clipPath id="clip0_1770_16886">
<rect width="24" height="24" fill="white"/>
</clipPath>
</defs>
</svg>
