<svg width="24" height="24" viewBox="0 0 24 24" fill="none" xmlns="http://www.w3.org/2000/svg">
<path d="M6.0006 8.53831C6.95022 8.53831 7.83411 8.16114 8.49309 7.4765C8.66086 7.14243 8.87465 6.83546 9.1266 6.56413C9.34906 6.09765 9.46214 5.59743 9.46214 5.07677C9.46214 3.16808 7.90929 1.61523 6.0006 1.61523C4.09191 1.61523 2.53906 3.16808 2.53906 5.07677C2.53906 6.98546 4.09191 8.53831 6.0006 8.53831Z" fill="white"/>
<path d="M12.0006 12.6926C13.9093 12.6926 15.4621 11.1398 15.4621 9.23107C15.4621 7.32238 13.9093 5.76953 12.0006 5.76953C10.0919 5.76953 8.53906 7.32238 8.53906 9.23107C8.53906 11.1398 10.0919 12.6926 12.0006 12.6926Z" fill="white"/>
<path d="M15.5081 7.4765C16.1671 8.16114 17.051 8.53831 18.0006 8.53831C19.9093 8.53831 21.4621 6.98546 21.4621 5.07677C21.4621 3.16808 19.9093 1.61523 18.0006 1.61523C16.0919 1.61523 14.5391 3.16808 14.5391 5.07677C14.5391 5.59739 14.6521 6.09756 14.8746 6.56403C15.1266 6.83542 15.3403 7.14239 15.5081 7.4765Z" fill="white"/>
<path d="M18 9C17.2683 9 16.5676 9.15822 15.915 9.47022C15.8207 11.0282 14.8132 12.3428 13.4219 12.886C15.6603 13.5091 17.3077 15.5657 17.3077 18V18.6923H22.8461V13.8462C22.8461 11.174 20.6721 9 18 9Z" fill="white"/>
<path d="M10.5805 12.886C9.18919 12.3428 8.18165 11.0282 8.08731 9.47022C7.43474 9.15822 6.73408 9 6.0024 9C3.33023 9 1.15625 11.174 1.15625 13.8462V18.6923H6.69471V18C6.69471 15.5657 8.34208 13.5091 10.5805 12.886Z" fill="white"/>
<path d="M12.0024 13.1543C9.33023 13.1543 7.15625 15.3283 7.15625 18.0005V22.8466H16.8486V18.0005C16.8486 15.3283 14.6746 13.1543 12.0024 13.1543Z" fill="white"/>
</svg>
