<svg width="76" height="76" viewBox="0 0 76 76" fill="none" xmlns="http://www.w3.org/2000/svg">
<g filter="url(#filter0_d_1770_16870)">
<rect x="18" y="8" width="40" height="40" rx="8" fill="#09A965" shape-rendering="crispEdges"/>
<path d="M32.0006 24.5383C32.9502 24.5383 33.8341 24.1611 34.4931 23.4765C34.6609 23.1424 34.8746 22.8355 35.1266 22.5641C35.3491 22.0976 35.4621 21.5974 35.4621 21.0768C35.4621 19.1681 33.9093 17.6152 32.0006 17.6152C30.0919 17.6152 28.5391 19.1681 28.5391 21.0768C28.5391 22.9855 30.0919 24.5383 32.0006 24.5383Z" fill="white"/>
<path d="M38.0006 28.6926C39.9093 28.6926 41.4621 27.1398 41.4621 25.2311C41.4621 23.3224 39.9093 21.7695 38.0006 21.7695C36.0919 21.7695 34.5391 23.3224 34.5391 25.2311C34.5391 27.1398 36.0919 28.6926 38.0006 28.6926Z" fill="white"/>
<path d="M41.5081 23.4765C42.1671 24.1611 43.051 24.5383 44.0006 24.5383C45.9093 24.5383 47.4621 22.9855 47.4621 21.0768C47.4621 19.1681 45.9093 17.6152 44.0006 17.6152C42.0919 17.6152 40.5391 19.1681 40.5391 21.0768C40.5391 21.5974 40.6521 22.0976 40.8746 22.564C41.1266 22.8354 41.3403 23.1424 41.5081 23.4765Z" fill="white"/>
<path d="M44 25C43.2683 25 42.5676 25.1582 41.915 25.4702C41.8207 27.0282 40.8132 28.3428 39.4219 28.886C41.6603 29.5091 43.3077 31.5657 43.3077 34V34.6923H48.8461V29.8462C48.8461 27.174 46.6721 25 44 25Z" fill="white"/>
<path d="M36.5805 28.886C35.1892 28.3428 34.1816 27.0282 34.0873 25.4702C33.4347 25.1582 32.7341 25 32.0024 25C29.3302 25 27.1562 27.174 27.1562 29.8462V34.6923H32.6947V34C32.6947 31.5657 34.3421 29.5091 36.5805 28.886Z" fill="white"/>
<path d="M38.0024 29.1543C35.3302 29.1543 33.1562 31.3283 33.1562 34.0005V38.8466H42.8486V34.0005C42.8486 31.3283 40.6746 29.1543 38.0024 29.1543Z" fill="white"/>
</g>
<defs>
<filter id="filter0_d_1770_16870" x="0" y="0" width="76" height="76" filterUnits="userSpaceOnUse" color-interpolation-filters="sRGB">
<feFlood flood-opacity="0" result="BackgroundImageFix"/>
<feColorMatrix in="SourceAlpha" type="matrix" values="0 0 0 0 0 0 0 0 0 0 0 0 0 0 0 0 0 0 127 0" result="hardAlpha"/>
<feMorphology radius="2" operator="erode" in="SourceAlpha" result="effect1_dropShadow_1770_16870"/>
<feOffset dy="10"/>
<feGaussianBlur stdDeviation="10"/>
<feComposite in2="hardAlpha" operator="out"/>
<feColorMatrix type="matrix" values="0 0 0 0 0.215686 0 0 0 0 0.286275 0 0 0 0 0.501961 0 0 0 0.15 0"/>
<feBlend mode="normal" in2="BackgroundImageFix" result="effect1_dropShadow_1770_16870"/>
<feBlend mode="normal" in="SourceGraphic" in2="effect1_dropShadow_1770_16870" result="shape"/>
</filter>
</defs>
</svg>
