<svg width="16" height="16" viewBox="0 0 16 16" fill="none" xmlns="http://www.w3.org/2000/svg">
<path d="M1.33398 3.3335L6.00065 1.3335L10.0007 3.3335L14.2027 1.53283C14.2534 1.51109 14.3087 1.50228 14.3637 1.50719C14.4186 1.51211 14.4715 1.53059 14.5176 1.56099C14.5637 1.59139 14.6014 1.63275 14.6276 1.68136C14.6537 1.72997 14.6674 1.78431 14.6673 1.8395V12.6668L10.0007 14.6668L6.00065 12.6668L1.79865 14.4675C1.74793 14.4892 1.6926 14.4981 1.63763 14.4931C1.58266 14.4882 1.52977 14.4697 1.48371 14.4393C1.43765 14.4089 1.39985 14.3676 1.37372 14.319C1.34759 14.2704 1.33394 14.216 1.33398 14.1608V3.3335ZM4.00065 7.3335V8.66683H5.33398V7.3335H4.00065ZM6.66732 7.3335V8.66683H8.00065V7.3335H6.66732ZM10.6673 7.2935L9.84265 6.46816L9.13532 7.17483L9.95998 8.00016L9.13532 8.82483L9.84198 9.53216L10.6673 8.7075L11.492 9.53216L12.1993 8.8255L11.3747 8.00016L12.1993 7.1755L11.4927 6.46816L10.6673 7.29283V7.2935Z" fill="#EEA033"/>
</svg>
