<svg width="16" height="16" viewBox="0 0 16 16" fill="none" xmlns="http://www.w3.org/2000/svg">
<path d="M11.3007 7.96687C11.8654 7.40262 12.2759 6.70285 12.4927 5.93455C12.7096 5.16625 12.7257 4.35515 12.5393 3.57887L14.2027 2.86554C14.2534 2.8438 14.3087 2.83499 14.3637 2.8399C14.4186 2.84482 14.4715 2.86331 14.5176 2.8937C14.5637 2.9241 14.6014 2.96546 14.6276 3.01407C14.6537 3.06268 14.6674 3.11702 14.6673 3.17221V12.6669L10.0007 14.6669L6.00065 12.6669L1.79865 14.4675C1.74793 14.4893 1.6926 14.4981 1.63763 14.4932C1.58266 14.4883 1.52977 14.4698 1.48371 14.4394C1.43765 14.409 1.39985 14.3676 1.37372 14.319C1.34759 14.2704 1.33394 14.2161 1.33398 14.1609V4.66687L3.41998 3.77287C3.27321 4.52326 3.31326 5.29823 3.53659 6.02949C3.75992 6.76075 4.15968 7.42586 4.70065 7.96621L8.00065 11.2669L11.3007 7.96687ZM10.358 7.02421L8.00065 9.38021L5.64332 7.02354C5.17723 6.55733 4.85985 5.96339 4.7313 5.31681C4.60276 4.67023 4.66882 4.00005 4.92114 3.39101C5.17345 2.78198 5.6007 2.26144 6.14884 1.8952C6.69699 1.52897 7.34142 1.3335 8.00065 1.3335C8.65988 1.3335 9.30432 1.52897 9.85246 1.8952C10.4006 2.26144 10.8278 2.78198 11.0802 3.39101C11.3325 4.00005 11.3985 4.67023 11.27 5.31681C11.1415 5.96339 10.8241 6.55733 10.358 7.02354V7.02421Z" fill="#D55E54"/>
</svg>
