<svg width="24" height="24" viewBox="0 0 24 24" fill="none" xmlns="http://www.w3.org/2000/svg">
<g clip-path="url(#clip0_1770_16911)">
<path fill-rule="evenodd" clip-rule="evenodd" d="M7.65628 12.6824H10.224C10.3531 12.6824 10.4584 12.7876 10.4584 12.9167V21.2158C10.4584 21.3449 10.3531 21.4501 10.224 21.4501C9.36811 21.4501 8.51222 21.4501 7.65628 21.4501C7.52719 21.4501 7.42191 21.3449 7.42191 21.2158C7.42191 18.4494 7.42191 15.6831 7.42191 12.9167C7.42191 12.7876 7.52719 12.6824 7.65628 12.6824ZM20.3184 16.9587L18.8718 17.7939V19.4677L20.3184 18.6324V16.9587ZM17.0955 16.392L18.5443 15.5556L19.9932 16.392L18.5443 17.2285L17.0955 16.392ZM18.2155 17.7947L16.7689 16.9595V18.6317L18.2155 19.467V17.7947ZM16.2767 16.1088L18.3796 14.8947C18.4772 14.8383 18.6017 14.8345 18.7065 14.8947L20.783 16.0935C20.8961 16.1453 20.9747 16.2595 20.9747 16.392V18.8203C20.9746 18.9333 20.9145 19.0432 20.8094 19.1035L18.7254 20.3067C18.6249 20.3736 18.4912 20.3822 18.3796 20.3176L16.2975 19.1155C16.1881 19.0623 16.1127 18.9501 16.1127 18.8203V16.392C16.1128 16.275 16.1756 16.1673 16.2767 16.1088ZM18.5437 12.5717C21.324 12.5717 23.5781 14.8258 23.5781 17.6062C23.5781 20.3865 21.324 22.6406 18.5437 22.6406C15.7633 22.6406 13.5092 20.3865 13.5092 17.6062C13.5092 14.8258 15.7633 12.5717 18.5437 12.5717ZM2.98964 15.836H5.55741C5.6865 15.836 5.79178 15.9413 5.79178 16.0703V21.2157C5.79178 21.3448 5.6865 21.4501 5.55741 21.4501H2.98964C2.86055 21.4501 2.75527 21.3448 2.75527 21.2157V16.0703C2.75531 15.9413 2.86059 15.836 2.98964 15.836ZM23.25 22.9219H1.07812V0.75C1.07812 0.568781 0.931219 0.421875 0.75 0.421875C0.568781 0.421875 0.421875 0.568781 0.421875 0.75V23.25C0.421875 23.4312 0.568781 23.5781 0.75 23.5781H23.25C23.4312 23.5781 23.5781 23.4312 23.5781 23.25C23.5781 23.0688 23.4312 22.9219 23.25 22.9219ZM5.86528 10.0037L6.45164 10.1242L1.86516 13.2237C1.71511 13.3249 1.6755 13.5286 1.7767 13.6787C1.87795 13.8288 2.08167 13.8684 2.23172 13.7672L6.79725 10.6818L6.68175 11.2438C6.64566 11.4208 6.75984 11.5935 6.9368 11.6296C7.11375 11.6657 7.28648 11.5515 7.32263 11.3746L7.59534 10.0475C7.61981 9.95845 7.60673 9.85973 7.55109 9.77719C7.49686 9.6968 7.41319 9.64809 7.32413 9.63581L5.99602 9.36291C5.81906 9.32681 5.64628 9.441 5.61019 9.61795C5.57409 9.79491 5.68833 9.96764 5.86528 10.0037ZM8.84128 9.30056C8.69119 9.40177 8.48747 9.3622 8.38627 9.21211C8.28506 9.06206 8.32463 8.8583 8.47472 8.75709L13.0613 5.65758L12.4749 5.53706C12.2979 5.50097 12.1837 5.32819 12.2198 5.15123C12.256 4.97428 12.4287 4.86005 12.6057 4.89619L13.9338 5.16909C14.13 5.19619 14.2575 5.38973 14.205 5.58075L13.9323 6.90788C13.8962 7.08483 13.7234 7.19906 13.5465 7.16292C13.3695 7.12683 13.2553 6.95405 13.2914 6.77709L13.4069 6.21511L8.84128 9.30056ZM15.4508 4.83389C15.3007 4.93509 15.097 4.89553 14.9958 4.74544C14.8946 4.59539 14.9341 4.39167 15.0842 4.29042L19.6708 1.19091L19.0844 1.07039C18.9075 1.0343 18.7932 0.861562 18.8294 0.684563C18.8655 0.507563 19.0382 0.393375 19.2152 0.429516L20.5433 0.702422C20.7395 0.729516 20.8671 0.923063 20.8145 1.11408L20.5418 2.4412C20.5057 2.61816 20.333 2.73234 20.156 2.69625C19.979 2.66016 19.8648 2.48738 19.9009 2.31042L20.0164 1.74844L15.4508 4.83389ZM12.3229 9.5287C12.1938 9.5287 12.0885 9.63398 12.0885 9.76308V21.2157C12.0885 21.3448 12.1938 21.4501 12.3229 21.4501H14.3476C13.3858 20.4011 12.8529 19.0367 12.8529 17.6061C12.8529 15.8099 13.6943 14.1333 15.125 13.0563V9.76303C15.125 9.63394 15.0197 9.52866 14.8906 9.52866C14.0347 9.5287 13.1788 9.5287 12.3229 9.5287ZM16.9895 6.37509H19.5572C19.6863 6.37509 19.7916 6.48037 19.7916 6.60947V12.0532C19.3858 11.9623 18.9676 11.9155 18.5437 11.9155C17.9287 11.9155 17.3258 12.0139 16.7551 12.2026V6.60947C16.7551 6.48037 16.8604 6.37509 16.9895 6.37509Z" fill="white"/>
</g>
<defs>
<clipPath id="clip0_1770_16911">
<rect width="24" height="24" fill="white"/>
</clipPath>
</defs>
</svg>
