<svg xmlns="http://www.w3.org/2000/svg" viewBox="0 0 320 512" style="transform: none; box-shadow: none; fill: rgb(1, 90, 173);" data-shapebackgroundtype="" class="" data-gradientcolor1="" data-gradientcolor2=""> <path d="M143 256.3L7 120.3c-9.4-9.4-9.4-24.6 0-33.9l22.6-22.6c9.4-9.4 24.6-9.4 33.9 0l96.4 96.4 96.4-96.4c9.4-9.4 24.6-9.4 33.9 0L313 86.3c9.4 9.4 9.4 24.6 0 33.9l-136 136c-9.4 9.5-24.6 9.5-34 .1zm34 192l136-136c9.4-9.4 9.4-24.6 0-33.9l-22.6-22.6c-9.4-9.4-24.6-9.4-33.9 0L160 352.1l-96.4-96.4c-9.4-9.4-24.6-9.4-33.9 0L7 278.3c-9.4 9.4-9.4 24.6 0 33.9l136 136c9.4 9.5 24.6 9.5 34 .1z" class=""/> <defs class=""> <linearGradient id="LD1-ELEMENT213-bgGradient" x1="0%" y1="0%" x2="0%" y2="100%" class=""> <stop offset="0%" style="stop-color:#eeb9d2" class=""/> <stop offset="100%" style="stop-color:#896db0" class=""/> </linearGradient></defs></svg>